<svg width="350" height="350" viewBox="0 0 350 350" fill="none" xmlns="http://www.w3.org/2000/svg">
<circle cx="175" cy="175" r="175" fill="white"/>
<path d="M175 77.5059L38.1754 128.816L175 197.229L240.168 164.645L179.033 145.953C177.774 146.557 176.396 146.872 175 146.875C172.514 146.875 170.129 145.887 168.371 144.129C166.613 142.371 165.625 139.986 165.625 137.5C165.625 135.014 166.613 132.629 168.371 130.871C170.129 129.113 172.514 128.125 175 128.125L173.45 133.165L184.311 136.507L184.316 136.54L200.344 141.441L291.602 169.519V176.635C290.339 177.494 289.306 178.648 288.591 179.997C287.876 181.346 287.502 182.849 287.5 184.376C287.502 185.937 287.893 187.474 288.64 188.845C289.386 190.217 290.463 191.381 291.773 192.231C287.506 208.359 287.5 244.951 287.5 259.375C296.875 265.466 296.875 265.688 306.25 259.375C306.25 244.953 306.245 208.367 301.979 192.236C303.289 191.385 304.366 190.221 305.112 188.848C305.858 187.475 306.249 185.937 306.25 184.375C306.25 182.847 305.876 181.342 305.161 179.991C304.446 178.64 303.412 177.484 302.148 176.625V161.73L267.388 151.035L311.825 128.816L175 77.5059ZM95.0916 170.898L87.4024 217.035C102.739 219.041 121.086 227.955 137.951 238.496C147.543 244.492 156.527 251.072 163.824 257.457C168.284 261.36 172.014 265.104 175 268.787C177.987 265.103 181.716 261.36 186.176 257.457C193.473 251.072 202.456 244.492 212.049 238.496C228.914 227.955 247.261 219.041 262.598 217.035L254.907 170.898H251.245L175 209.021L98.7537 170.898H95.0916Z" fill="black"/>
</svg>
